<svg width="55" height="62" viewBox="0 0 55 62" fill="none" xmlns="http://www.w3.org/2000/svg">
<path d="M4.28462 35.0566L1.55918 32.3683C0.40516 31.23 0.40516 29.3894 1.55918 28.2632L25.413 4.72261C26.567 3.58433 28.4331 3.58433 29.5748 4.72261L53.4286 28.2511C54.5826 29.3894 54.5826 31.23 53.4286 32.3562L50.7032 35.0445C49.5369 36.1949 47.634 36.1707 46.4922 34.996L32.4107 20.4164V55.2187C32.4107 56.8292 31.0971 58.125 29.4643 58.125H25.5357C23.9029 58.125 22.5893 56.8292 22.5893 55.2187V20.4164L8.49556 35.0082C7.35382 36.1949 5.45092 36.2191 4.28462 35.0566V35.0566Z" fill="white"/>
</svg>
