<svg width="54" height="43" viewBox="0 0 54 43" fill="none" xmlns="http://www.w3.org/2000/svg">
<path d="M14.5 34.9044V13C14.5 12.4477 14.9477 12 15.5 12H51.5C52.0523 12 52.5 12.4477 52.5 13V35.024C52.5 35.3252 52.3643 35.6103 52.1306 35.8001L44.7756 41.7761C44.5973 41.9209 44.3746 42 44.145 42H6.44575C5.40817 42 5.05714 40.6149 5.96946 40.1207L13.9763 35.7837C14.299 35.6089 14.5 35.2714 14.5 34.9044Z" stroke="#B5B5B5" stroke-width="2"/>
<path d="M15 34.5H52" stroke="#B5B5B5" stroke-width="2"/>
<path d="M28.5 20L25 23.5L28.5 27" stroke="#B5B5B5" stroke-width="2"/>
<path d="M37.5 20L41 23.5L37.5 27" stroke="#B5B5B5" stroke-width="2"/>
<path d="M35.4067 18.4132L30.5177 28.2415" stroke="#B5B5B5" stroke-width="2"/>
<path d="M7.94604 4.5L12.446 10.5" stroke="#B5B5B5" stroke-width="2"/>
<path d="M21.018 1L21.0617 8.49987" stroke="#B5B5B5" stroke-width="2"/>
<path d="M1 15.3661L8.39206 16.634" stroke="#B5B5B5" stroke-width="2"/>
</svg>
