<svg width="61" height="40" viewBox="0 0 61 40" fill="none" xmlns="http://www.w3.org/2000/svg">
<path d="M55.5 5V8.5" stroke="#B5B5B5" stroke-width="2"/>
<path d="M55.5 13V16.5" stroke="#B5B5B5" stroke-width="2"/>
<path d="M50.5 11H54" stroke="#B5B5B5" stroke-width="2"/>
<path d="M57.5 11H61" stroke="#B5B5B5" stroke-width="2"/>
<path d="M8.5 28V9C8.5 7.89543 9.39543 7 10.5 7H38.5C39.6046 7 40.5 7.89543 40.5 9V14M8.5 28H29M8.5 28H3.07752C1.63021 28 0.66209 29.4897 1.2499 30.8123L1.47212 31.3123C1.79313 32.0345 2.50937 32.5 3.29975 32.5H18.5H34M14 19L18.1609 20.0402C19.1921 20.298 20.2449 19.7041 20.5575 18.6881L21.5656 15.4118C21.8238 14.5726 22.5991 14 23.4771 14H25.8718C26.5695 14 27.2136 14.3738 27.5597 14.9795V14.9795C28.2463 16.181 29.9327 16.3008 30.7822 15.2086L32.5 13" stroke="#B5B5B5" stroke-width="2"/>
<path d="M3.5 28.5V6C3.5 3.23858 5.73858 1 8.5 1H39.5C42.2614 1 44.5 3.23858 44.5 6V22.5" stroke="#B5B5B5" stroke-width="2"/>
<path d="M34 25L31.5 29L36 34.5L37 37V39H45L46.5 33.5L49 30.5L48.5 25.5L40.5 18.5L38.75 20.5M38.75 20.5L40.5 25L39 29L36 27.5L32.5 17.5V12L37 16L38.75 20.5Z" stroke="#B5B5B5" stroke-width="2"/>
</svg>
