<svg width="61" height="44" viewBox="0 0 61 44" fill="none" xmlns="http://www.w3.org/2000/svg">
<path d="M29.0699 30.7053L3.32235 4.37009C2.0843 3.10379 2.98147 0.971924 4.75242 0.971924H56.2476C58.0185 0.971924 58.9157 3.10379 57.6777 4.37009L31.9301 30.7053C31.1455 31.5077 29.8545 31.5077 29.0699 30.7053Z" fill="white"/>
<path d="M29.0699 35.7641L3.43008 9.53911C2.17682 8.25725 0 9.14457 0 10.9373V41.9719C0 43.0765 0.895432 43.9719 2 43.9719H59C60.1046 43.9719 61 43.0765 61 41.9719V10.9373C61 9.14457 58.8232 8.25725 57.5699 9.5391L31.9301 35.7641C31.1455 36.5666 29.8545 36.5666 29.0699 35.7641Z" fill="white"/>
</svg>
