<svg width="1440" height="1792" viewBox="0 0 1440 1792" fill="none" xmlns="http://www.w3.org/2000/svg">
<path d="M180.621 795.834C83.574 775.795 65.8619 678.862 -30.8437 657.268C-298.708 597.455 -143.683 1669.27 -143.683 1669.27L1463.83 1671.14C1463.83 1671.14 1719.7 922.168 1603.41 606.567C1569.88 515.568 1612.17 167.084 1525.82 120.663C1463 86.8959 1453.75 308.498 1289.73 386.817C1179.12 439.633 1097.94 446.945 1064.09 567.943C1037.27 663.792 974.615 718.834 876.652 743.227C813.58 758.932 710.373 731.319 710.373 731.319C710.373 731.319 550.159 667.406 450.641 691.75C370.515 711.351 353.761 793.069 271.713 802.358C236.295 806.368 215.539 803.045 180.621 795.834Z" fill="url(#paint0_linear)"/>
<defs>
<linearGradient id="paint0_linear" x1="807.47" y1="336.077" x2="726" y2="1562" gradientUnits="userSpaceOnUse">
<stop stop-color="#B7F3F0"/>
<stop offset="1" stop-color="#B7F3F0" stop-opacity="0"/>
</linearGradient>
</defs>
</svg>
