<svg width="295" height="295" viewBox="0 0 295 295" fill="none" xmlns="http://www.w3.org/2000/svg">
<mask id="mask0" mask-type="alpha" maskUnits="userSpaceOnUse" x="0" y="0" width="295" height="295">
<circle cx="147.5" cy="147.5" r="147.5" fill="#C4C4C4"/>
</mask>
<g mask="url(#mask0)">
<rect x="-3" y="-20" width="319.272" height="336.076" fill="#C7F5F3"/>
<path d="M195.499 190.832L185.092 150.756L152.134 176.067L115.708 150.756L94.6495 129.002C97.5405 144.47 105.994 212.769 108.769 207.707C111.545 202.644 141.148 205.597 155.604 207.707L185.092 214.035L195.499 190.832Z" fill="#AA9898"/>
<path d="M161.866 172.778C161.876 172.69 161.882 172.6 161.883 172.508C161.877 172.598 161.872 172.688 161.866 172.778C161.041 179.843 130.244 172.508 130.244 172.508C130.244 172.508 133.828 195.605 130.244 198.215C126.659 200.825 115.8 200.435 102.559 210.08C89.3189 219.724 104.257 212.144 110.469 210.08C172.429 211.398 197.477 221.151 197.477 217.987C197.477 212.906 199.344 212.148 200.68 212.333C202.823 213.652 202.018 212.519 200.68 212.333C199.968 211.895 198.929 211.185 197.477 210.08C187.295 202.33 182.497 203.893 161.883 198.215C161.883 198.215 161.143 184.637 161.866 172.778Z" fill="#AC6373"/>
<path d="M140.378 186.348H164.107L165.838 200.192L197.477 202.17L215.274 208.102C229.615 221.119 229.548 254.272 237.026 289.178C213.296 299.724 146.854 310.534 142.108 308.952C137.362 307.37 72.2382 298.406 51.1454 289.178C63.6738 253.845 63.5502 217.813 74.8748 208.102L94.6493 202.17L126.289 200.19L128.266 186.348H140.378Z" fill="url(#paint0_linear)"/>
<path d="M98.8547 113.182C98.8547 131.698 104.594 148.452 113.862 160.571C123.13 172.691 135.915 180.165 150.018 180.165C164.122 180.165 176.907 172.691 186.175 160.571C195.443 148.452 201.182 131.698 201.182 113.182C201.182 94.6662 195.443 77.9124 186.175 65.7929C176.907 53.6736 164.122 46.1989 150.018 46.1989C135.915 46.1989 123.13 53.6736 113.862 65.7929C104.594 77.9124 98.8547 94.6662 98.8547 113.182Z" fill="#F8CBBD" stroke="#A35757" stroke-width="0.5"/>
<path d="M136.176 158.666H161.883C161.883 162.618 151.996 166.684 148.041 166.576C144.086 166.468 138.153 160.644 136.176 158.666Z" fill="white" stroke="#A88D8D" stroke-width="0.25"/>
<path d="M149.029 80.2623C166.826 88.1722 204.398 127.721 186.601 155.406C168.804 183.09 191.544 219.964 191.544 219.964C191.544 219.964 202.567 232.91 197.999 276.687C197.774 278.304 197.597 279.836 197.477 281.265C197.669 279.703 197.843 278.177 197.999 276.687C200.569 258.17 209.342 228.422 209.342 212.054C225.161 170.528 219.781 176.942 209.342 105.272C204.227 90.2359 206.997 86.2009 179.68 53.8585C174.669 47.9262 149.085 42.857 130.244 47.926C114.035 52.395 100.582 63.7456 90.6945 79.5653C80.8073 95.3849 68.8348 169.084 76.8524 196.235C84.87 223.386 79.1532 222.888 96.6269 263.468C100.987 272.247 104.548 277.042 120.44 280.495C122.657 281.352 124.227 281.552 124.311 281.265C122.945 281.015 121.656 280.759 120.44 280.495C113.464 277.798 100.089 268.602 106.514 247.649C114.981 220.037 119.01 217.954 106.514 170.528C106.514 170.528 96.6269 142.84 106.514 134.934C116.401 127.027 125.3 80.2623 149.029 80.2623Z" fill="url(#paint1_linear)"/>
<path d="M169.793 129.081C169.793 129.081 177.703 128.112 181.658 132.956C171.752 131.906 169.277 132.136 161.883 132.956C163.861 128.771 169.793 129.081 169.793 129.081Z" fill="#3F3F3F"/>
<path d="M130.244 129.081C130.244 129.081 122.334 128.112 118.379 132.956C128.284 131.906 130.76 132.136 138.154 132.956C136.176 128.771 130.244 129.081 130.244 129.081Z" fill="#3F3F3F"/>
<path d="M156.175 136.911C156.175 145.511 163.587 152.506 172.758 152.506C181.93 152.506 189.342 145.511 189.342 136.911C189.342 128.311 181.93 121.317 172.758 121.317C163.587 121.317 156.175 128.311 156.175 136.911Z" stroke="#A76C5A" stroke-width="0.45"/>
<path d="M108.717 136.911C108.717 145.511 116.128 152.506 125.3 152.506C134.472 152.506 141.883 145.511 141.883 136.911C141.883 128.311 134.472 121.317 125.3 121.317C116.128 121.317 108.717 128.311 108.717 136.911Z" stroke="#A76C5A" stroke-width="0.45"/>
<path d="M155.951 136.911C149.964 136.009 146.982 136.085 142.108 136.911" stroke="#F2E5CE" stroke-width="0.45"/>
</g>
<defs>
<linearGradient id="paint0_linear" x1="142.108" y1="390.025" x2="142.108" y2="184.37" gradientUnits="userSpaceOnUse">
<stop stop-color="#C0C0C0"/>
<stop offset="1" stop-color="#323232"/>
</linearGradient>
<linearGradient id="paint1_linear" x1="146.757" y1="45.8475" x2="146.757" y2="281.388" gradientUnits="userSpaceOnUse">
<stop stop-color="#444343"/>
<stop offset="1" stop-color="#837877"/>
</linearGradient>
</defs>
</svg>
