<svg width="21" height="315" viewBox="0 0 21 315" fill="none" xmlns="http://www.w3.org/2000/svg">
<path d="M2.528 0.103998H9.504C12.0213 0.103998 14.016 0.626665 15.488 1.672C16.9813 2.696 17.728 4.38133 17.728 6.728C17.728 9.032 16.9707 10.7707 15.456 11.944C13.9413 13.1173 12 13.704 9.632 13.704H6.912V21H2.528V0.103998ZM9.344 10.216C12.0747 10.216 13.44 9.05333 13.44 6.728C13.44 5.61867 13.088 4.81867 12.384 4.328C11.7013 3.83733 10.6453 3.592 9.216 3.592H6.912V10.216H9.344ZM13.856 63L9.696 55.256H6.912V63H2.528V42.104H9.888C12.32 42.104 14.2507 42.6053 15.68 43.608C17.1093 44.5893 17.824 46.2213 17.824 48.504C17.824 49.9973 17.4827 51.256 16.8 52.28C16.1173 53.2827 15.168 54.0293 13.952 54.52L18.784 63H13.856ZM6.912 51.768H9.504C10.8267 51.768 11.8293 51.5013 12.512 50.968C13.1947 50.4133 13.536 49.592 13.536 48.504C13.536 47.4587 13.2053 46.712 12.544 46.264C11.8827 45.816 10.8693 45.592 9.504 45.592H6.912V51.768ZM10.912 104.384C9.056 104.384 7.41333 103.947 5.984 103.072C4.576 102.197 3.47733 100.939 2.688 99.296C1.89867 97.632 1.504 95.6907 1.504 93.472C1.504 91.232 1.89867 89.312 2.688 87.712C3.47733 86.0907 4.576 84.8533 5.984 84C7.41333 83.1467 9.056 82.72 10.912 82.72C12.768 82.72 14.4 83.1467 15.808 84C17.2373 84.8533 18.336 86.0907 19.104 87.712C19.8933 89.3333 20.288 91.2533 20.288 93.472C20.288 95.6907 19.8933 97.632 19.104 99.296C18.336 100.939 17.2373 102.197 15.808 103.072C14.4 103.947 12.768 104.384 10.912 104.384ZM10.912 100.576C12.4053 100.576 13.5893 99.936 14.464 98.656C15.36 97.376 15.808 95.648 15.808 93.472C15.808 91.3173 15.36 89.6213 14.464 88.384C13.5893 87.1467 12.4053 86.528 10.912 86.528C9.39733 86.528 8.20267 87.1467 7.328 88.384C6.45333 89.6 6.016 91.296 6.016 93.472C6.016 95.648 6.45333 97.376 7.328 98.656C8.224 99.936 9.41867 100.576 10.912 100.576ZM7.168 146.384C5.632 146.384 4.33067 146.085 3.264 145.488C2.19733 144.869 1.312 143.931 0.608 142.672L3.584 140.464C4.352 141.872 5.36533 142.576 6.624 142.576C7.54133 142.576 8.224 142.288 8.672 141.712C9.12 141.136 9.344 140.165 9.344 138.8V125.104H13.728V139.184C13.728 141.296 13.1733 143.024 12.064 144.368C10.9547 145.712 9.32267 146.384 7.168 146.384ZM2.528 167.104H15.456V170.784H6.912V175.36H14.176V179.04H6.912V184.32H15.776V188H2.528V167.104ZM11.136 230.384C9.344 230.384 7.712 229.968 6.24 229.136C4.78933 228.304 3.63733 227.088 2.784 225.488C1.93067 223.867 1.504 221.925 1.504 219.664C1.504 217.424 1.94133 215.483 2.816 213.84C3.69067 212.176 4.87467 210.907 6.368 210.032C7.86133 209.157 9.49333 208.72 11.264 208.72C12.5227 208.72 13.6747 208.976 14.72 209.488C15.7867 209.979 16.704 210.619 17.472 211.408L15.136 214.224C14.56 213.669 13.9627 213.253 13.344 212.976C12.7467 212.677 12.0853 212.528 11.36 212.528C10.336 212.528 9.41867 212.816 8.608 213.392C7.79733 213.947 7.15733 214.757 6.688 215.824C6.24 216.869 6.016 218.096 6.016 219.504C6.016 221.701 6.48533 223.429 7.424 224.688C8.384 225.947 9.67467 226.576 11.296 226.576C12.896 226.576 14.2933 225.904 15.488 224.56L17.824 227.312C16.0747 229.36 13.8453 230.384 11.136 230.384ZM6.656 254.784H0.832V251.104H16.896V254.784H11.04V272H6.656V254.784ZM8.832 314.384C7.424 314.384 6.048 314.128 4.704 313.616C3.36 313.083 2.176 312.325 1.152 311.344L3.68 308.336C4.448 309.019 5.29067 309.563 6.208 309.968C7.14667 310.373 8.05333 310.576 8.928 310.576C9.952 310.576 10.7307 310.384 11.264 310C11.8187 309.595 12.096 309.04 12.096 308.336C12.096 307.888 11.968 307.515 11.712 307.216C11.4773 306.917 11.168 306.672 10.784 306.48C10.4213 306.288 9.824 306.021 8.992 305.68L6.24 304.496C5.00267 303.984 3.98933 303.269 3.2 302.352C2.41067 301.413 2.016 300.24 2.016 298.832C2.016 297.701 2.32533 296.677 2.944 295.76C3.584 294.821 4.45867 294.085 5.568 293.552C6.67733 292.997 7.92533 292.72 9.312 292.72C10.528 292.72 11.7227 292.965 12.896 293.456C14.0693 293.925 15.0827 294.587 15.936 295.44L13.728 298.224C13.0027 297.648 12.288 297.221 11.584 296.944C10.88 296.667 10.1227 296.528 9.312 296.528C8.43733 296.528 7.744 296.709 7.232 297.072C6.72 297.435 6.464 297.936 6.464 298.576C6.464 299.024 6.592 299.397 6.848 299.696C7.12533 299.995 7.456 300.24 7.84 300.432C8.24533 300.624 8.864 300.891 9.696 301.232L12.384 302.32C13.728 302.875 14.7627 303.611 15.488 304.528C16.2133 305.424 16.576 306.576 16.576 307.984C16.576 309.157 16.2667 310.235 15.648 311.216C15.0293 312.176 14.1333 312.944 12.96 313.52C11.7867 314.096 10.4107 314.384 8.832 314.384Z" fill="#999999"/>
</svg>
