<svg width="294" height="663" viewBox="0 0 294 663" fill="none" xmlns="http://www.w3.org/2000/svg">
<path d="M23.2898 597.954C9.11297 562.131 26.8915 524.872 60.8881 506.746C92.4834 489.901 115.993 523.238 151.636 519.828C183.513 516.779 207.535 471.902 229.77 494.948C250.696 516.638 237.28 554.066 211.681 569.973C188.315 584.494 166.233 547.304 141.92 560.178C113.551 575.201 143.081 621.926 115.256 637.934C81.3111 657.464 37.7005 634.368 23.2898 597.954Z" fill="url(#paint0_linear)"/>
<path d="M393.344 224.864C396.855 242.481 372.35 265.793 372.35 265.793C372.35 265.793 326.238 293.838 304.262 319.655C278.443 349.987 291.18 388.815 257.709 410.412C219.469 435.087 181.9 426.76 141.246 406.305C78.3341 374.651 39.9175 303.655 70.7271 240.325C94.5631 191.329 171.416 223.864 193.505 174.056C208.198 140.926 173.747 111.741 193.343 81.2531C223.798 33.8707 301.526 38.3407 337.573 81.6204C371.129 121.908 281.154 185.158 324.122 215.206C346.49 230.848 388.01 198.095 393.344 224.864Z" fill="url(#paint1_linear)"/>
<defs>
<linearGradient id="paint0_linear" x1="325.951" y1="594.184" x2="-101.475" y2="420.016" gradientUnits="userSpaceOnUse">
<stop stop-color="#CDF7F4"/>
<stop offset="1" stop-color="#CDF7F4" stop-opacity="0"/>
</linearGradient>
<linearGradient id="paint1_linear" x1="359.555" y1="301.609" x2="105.993" y2="171.546" gradientUnits="userSpaceOnUse">
<stop stop-color="#B7F3F0"/>
<stop offset="1" stop-color="#B7F3F0" stop-opacity="0"/>
</linearGradient>
</defs>
</svg>
